<?xml version="1.0" ?><!DOCTYPE svg  PUBLIC '-//W3C//DTD SVG 1.1//EN'  'http://www.w3.org/Graphics/SVG/1.1/DTD/svg11.dtd'><svg enable-background="new 0 0 512 512" id="Layer_1" version="1.1" viewBox="0 0 512 512" xml:space="preserve" xmlns="http://www.w3.org/2000/svg" xmlns:xlink="http://www.w3.org/1999/xlink"><circle cx="256" cy="256" fill="#297DED" id="ellipse" r="256"/><path d="M353.4,348.6H162.8c-36.8,0-66.8-30-66.8-66.8c0-25.5,14.4-48.5,37-59.7  c2.9-23.6,22.7-41.6,47-41.6c7.9,0,15.7,2,22.6,5.8c16.2-26.8,44.8-43.1,76.6-43.1c46.6,0,85.4,36.3,89.4,82  c27.4,6.9,47.4,32,47.4,60.6C416,320.5,387.9,348.6,353.4,348.6z M180,195.2c-17.9,0-32.3,14.1-32.7,31.9l-0.1,4.8l-4.4,1.8  c-19.6,8.2-32.1,27-32.1,48.1c0,28.7,23.3,52.1,52.1,52.1h190.7c26.5,0,48-21.5,48-47.9c0-23.5-17.5-43.8-40.8-47.4l-6.1-0.9  l-0.1-6.2c-0.7-40.6-34.4-73.6-75-73.6c-28.9,0-54.8,16.2-67.5,42.2l-4.1,8.3l-7.1-5.8C194.8,197.8,187.6,195.2,180,195.2z" fill="#FFFFFF" id="logo"/></svg>